<svg width="23" height="23" viewBox="0 0 23 23" fill="none" xmlns="http://www.w3.org/2000/svg">
<path fill-rule="evenodd" clip-rule="evenodd" d="M0.25 11.5C0.25 5.29 5.27875 0.25 11.4888 0.25C17.71 0.25 22.75 5.29 22.75 11.5C22.75 17.71 17.71 22.75 11.4888 22.75C5.27875 22.75 0.25 17.71 0.25 11.5ZM15.9664 7H19.2852C18.2052 5.14375 16.4839 3.70375 14.4139 2.995C15.0889 4.24375 15.6064 5.59375 15.9664 7ZM11.5002 2.54501C12.4339 3.89501 13.1652 5.39126 13.6489 7.00001H9.35141C9.83516 5.39126 10.5664 3.89501 11.5002 2.54501ZM2.50003 11.5C2.50003 12.2763 2.61252 13.03 2.79252 13.75H6.59502C6.50502 13.0075 6.43752 12.265 6.43752 11.5C6.43752 10.735 6.50502 9.9925 6.59502 9.25H2.79252C2.61252 9.97 2.50003 10.7238 2.50003 11.5ZM3.71504 16H7.03379C7.39379 17.4063 7.91129 18.7563 8.58629 20.005C6.51629 19.2963 4.79504 17.8675 3.71504 16ZM3.71504 7H7.03379C7.39379 5.59375 7.91129 4.24375 8.58629 2.995C6.51629 3.70375 4.79504 5.1325 3.71504 7ZM11.5002 20.455C10.5664 19.105 9.83516 17.6088 9.35141 16H13.6489C13.1652 17.6088 12.4339 19.105 11.5002 20.455ZM8.8675 13.75H14.1325C14.2338 13.0075 14.3125 12.265 14.3125 11.5C14.3125 10.735 14.2338 9.98125 14.1325 9.25H8.8675C8.76625 9.98125 8.6875 10.735 8.6875 11.5C8.6875 12.265 8.76625 13.0075 8.8675 13.75ZM14.4139 20.005C15.0889 18.7563 15.6064 17.4063 15.9664 16H19.2852C18.2052 17.8563 16.4839 19.2963 14.4139 20.005ZM16.5626 11.5C16.5626 12.265 16.4951 13.0075 16.4051 13.75H20.2076C20.3876 13.03 20.5001 12.2763 20.5001 11.5C20.5001 10.7238 20.3876 9.97 20.2076 9.25H16.4051C16.4951 9.9925 16.5626 10.735 16.5626 11.5Z" fill="#56CCF2"/>
</svg>
